<svg xmlns="http://www.w3.org/2000/svg" xmlns:xlink="http://www.w3.org/1999/xlink" width="430" height="235" viewBox="0 0 430 235"><defs><clipPath id="b"><rect width="430" height="235"/></clipPath></defs><g id="a" clip-path="url(#b)"><path d="M106,158h0V106h52V56H106V4H56V56H4v50H56v52h50m0,4H56a4,4,0,0,1-4-4V110H4a4,4,0,0,1-4-4V56a4,4,0,0,1,4-4H52V4a4,4,0,0,1,4-4h50a4,4,0,0,1,4,4V52h48a4,4,0,0,1,4,4v50a4,4,0,0,1-4,4H110v48A4,4,0,0,1,106,162Z" transform="translate(26 57)" fill="#fff" opacity="0.85"/><path d="M31,2.5H0v-5H31Z" transform="translate(38.5 138)" fill="#fff" opacity="0.85"/><path d="M31,2.5H0v-5H31Z" transform="translate(144.5 138)" fill="#fff" opacity="0.85"/><path d="M31,2.5H0v-5H31Z" transform="translate(107 69.5) rotate(90)" fill="#fff" opacity="0.85"/><path d="M31,2.5H0v-5H31Z" transform="translate(107 175.5) rotate(90)" fill="#fff" opacity="0.85"/><path d="M31,4A27.008,27.008,0,0,0,20.492,55.88,27.008,27.008,0,0,0,41.508,6.12,26.827,26.827,0,0,0,31,4m0-4A31,31,0,1,1,0,31,31,31,0,0,1,31,0Z" transform="translate(292 53)" fill="#fff" opacity="0.85"/><path d="M4,4V39H73V4H4M3,0H74a3,3,0,0,1,3,3V40a3,3,0,0,1-3,3H3a3,3,0,0,1-3-3V3A3,3,0,0,1,3,0Z" transform="translate(26 4)" fill="#fff" opacity="0.85"/><path d="M4,4V39H73V4H4M3,0H74a3,3,0,0,1,3,3V40a3,3,0,0,1-3,3H3a3,3,0,0,1-3-3V3A3,3,0,0,1,3,0Z" transform="translate(332 4)" fill="#fff" opacity="0.85"/><circle cx="7.5" cy="7.5" r="7.5" transform="translate(118 18)" fill="#fff" opacity="0.85"/><path d="M4,4V39H56V4H4M3,0H57a3,3,0,0,1,3,3V40a3,3,0,0,1-3,3H3a3,3,0,0,1-3-3V3A3,3,0,0,1,3,0Z" transform="translate(186 4)" fill="#fff" opacity="0.85"/><path d="M.859,0,12.375-31.238h3.738L27.629,0H22.9L14.244-25.2,5.586,0ZM6.166-6.854v-4.168H22.6v4.168Z" transform="translate(360.756 150.619)" fill="#fff" opacity="0.85"/><path d="M6.445,0V-4.061H14.91q3.48,0,4.931-1.332a4.53,4.53,0,0,0,1.45-3.5v-.064a5.364,5.364,0,0,0-1.235-3.706,5.217,5.217,0,0,0-4.071-1.386H6.445V-18h9.539a5.2,5.2,0,0,0,3.663-1.149,4.37,4.37,0,0,0,1.235-3.362,4.325,4.325,0,0,0-1.375-3.5,6.271,6.271,0,0,0-4.125-1.16H6.445v-4.061h9.732q4.619,0,6.875,2.3a8.422,8.422,0,0,1,2.256,6.166,7.26,7.26,0,0,1-1.375,4.286,6.422,6.422,0,0,1-4.318,2.481,6.586,6.586,0,0,1,4.5,2.557,7.9,7.9,0,0,1,1.6,4.877v.064a8.1,8.1,0,0,1-2.471,6.166A9.345,9.345,0,0,1,16.543,0ZM3.867,0V-31.238H8.229V0Z" transform="translate(308.208 203.619)" fill="#fff" opacity="0.85"/><path d="M22.773-31.238,13.256-12.7V0H8.873V-12.7L-.645-31.238H4.232l6.832,14.094L17.9-31.238Z" transform="translate(259.936 152.619)" fill="#fff" opacity="0.85"/><path d="M19.615,0,11.494-13.729,10.828-14.8.688-31.238h4.92L13.148-18.52l.709,1.16L24.535,0ZM.43,0,11.3-17.854l7.842-13.385h4.92L13.729-14.33,5.35,0Z" transform="translate(310.518 99.5)" fill="#fff" opacity="0.85"/><path d="M-6.758-1.98a4.554,4.554,0,0,0,.12.84.648.648,0,0,0,.308.39,1.641,1.641,0,0,0,.742.15V.045Q-6.713-.03-7.628-.03T-9.683.045V-.6A1.466,1.466,0,0,0-8.76-.863a1.094,1.094,0,0,0,.247-.818l-.015-.3-.3-4.98L-11.558.105h-.555l-3.015-7.17-.3,4.9A1.9,1.9,0,0,0-15.2-1a1.132,1.132,0,0,0,.938.4V.045q-.9-.075-1.635-.075t-1.635.075V-.6a1.044,1.044,0,0,0,.885-.375,2.637,2.637,0,0,0,.285-1.185l.345-5.34a1.083,1.083,0,0,0-.308-.937,1.29,1.29,0,0,0-.847-.278v-.66q.84.045,1.47.045t1.32-.045l2.985,6.615,2.565-6.615q.96.03,1.44.03.5,0,1.425-.03v.66a1.344,1.344,0,0,0-.885.262,1.071,1.071,0,0,0-.27.937Zm7.425.54A3.348,3.348,0,0,1-.578-.18a3.319,3.319,0,0,1-1.65.42A2.494,2.494,0,0,1-4.26-.637,3.839,3.839,0,0,1-4.988-3.15,4.635,4.635,0,0,1-4.1-6.263a2.906,2.906,0,0,1,2.3-1.012A1.9,1.9,0,0,1,.052-6.24,5.414,5.414,0,0,1,.577-3.765h-3.87v.345A3.826,3.826,0,0,0-2.9-1.5a1.248,1.248,0,0,0,1.14.66,2.786,2.786,0,0,0,1.98-.9Zm-2.7-5.205q-1.05,0-1.23,2.205h2.115a6.221,6.221,0,0,0-.24-1.613Q-1.583-6.645-2.033-6.645Zm10.245,4.8a3.574,3.574,0,0,0,.06.78A.563.563,0,0,0,8.565-.7a1.772,1.772,0,0,0,.757.142v.6Q8.018-.03,7.418-.03T5.5.045v-.6A1.716,1.716,0,0,0,6.247-.7a.569.569,0,0,0,.285-.375,3.589,3.589,0,0,0,.06-.773v-3.24a1.011,1.011,0,0,0-.3-.8,1.1,1.1,0,0,0-.75-.263,1.446,1.446,0,0,0-.862.315,2.78,2.78,0,0,0-.728.81v3.18a3.574,3.574,0,0,0,.06.78A.567.567,0,0,0,4.3-.7a1.716,1.716,0,0,0,.75.142v.6q-1.38-.075-2-.075T1.207.045v-.6A1.816,1.816,0,0,0,1.98-.7a.563.563,0,0,0,.292-.368,3.574,3.574,0,0,0,.06-.78V-5.07a2.89,2.89,0,0,0-.06-.7.537.537,0,0,0-.292-.337,1.922,1.922,0,0,0-.773-.135v-.57l2.34-.465.33.15V-5.85A3.077,3.077,0,0,1,4.935-6.9,2.484,2.484,0,0,1,6.2-7.275a2.1,2.1,0,0,1,1.462.495,1.842,1.842,0,0,1,.547,1.44Zm8.28-.135a2.9,2.9,0,0,0,.06.69.535.535,0,0,0,.3.345,1.937,1.937,0,0,0,.765.135v.585l-2.325.45-.345-.15V-1.08a2.814,2.814,0,0,1-1.02.968A2.537,2.537,0,0,1,12.7.225a2.02,2.02,0,0,1-1.433-.5,1.87,1.87,0,0,1-.532-1.44V-5.04a2.99,2.99,0,0,0-.06-.7.537.537,0,0,0-.292-.345,1.922,1.922,0,0,0-.773-.135V-6.81l2.4-.465.345.15V-1.98a1.1,1.1,0,0,0,.27.817,1.009,1.009,0,0,0,.735.262,1.476,1.476,0,0,0,.84-.262,2.371,2.371,0,0,0,.675-.712V-5.04a3.39,3.39,0,0,0-.052-.712.51.51,0,0,0-.292-.338,1.985,1.985,0,0,0-.78-.135V-6.81l2.415-.465.33.15Z" transform="translate(215 30)" fill="#fff" opacity="0.85"/><path d="M1.172,0V-10.649H3.179V0Zm.894,0V-1.934h6.24V0Z" transform="translate(39 30)" fill="#fff" opacity="0.85"/><path d="M1.97-4.285V-6.218H5.676a.921.921,0,0,0,.751-.344,1.419,1.419,0,0,0,.289-.908,1.388,1.388,0,0,0-.282-.908.929.929,0,0,0-.758-.344H1.97v-1.934H5.837a2.966,2.966,0,0,1,1.549.4A2.686,2.686,0,0,1,8.416-9.148a3.644,3.644,0,0,1,.366,1.677,3.614,3.614,0,0,1-.37,1.677A2.719,2.719,0,0,1,7.383-4.68a2.946,2.946,0,0,1-1.545.4ZM1.172,0V-10.657H3.179V0ZM6.8,0,4.211-4.614l2.146-.337L9.229,0Z" transform="translate(389 30)" fill="#fff" opacity="0.85"/><path d="M3.765-9.57a6.61,6.61,0,0,1,1.313.135A4.358,4.358,0,0,1,6.21-9.06a14.122,14.122,0,0,0-.15,2.325H5.43a2.234,2.234,0,0,0-.48-1.477A1.543,1.543,0,0,0,3.705-8.79a1.857,1.857,0,0,0-1.163.33,1.139,1.139,0,0,0-.428.96,1.535,1.535,0,0,0,.218.847,1.637,1.637,0,0,0,.547.532q.33.2.915.465l.345.15a7.064,7.064,0,0,1,1.178.66,2.531,2.531,0,0,1,.757.908,3.2,3.2,0,0,1,.3,1.478,2.531,2.531,0,0,1-.4,1.425A2.6,2.6,0,0,1,4.875-.1,3.533,3.533,0,0,1,3.36.225,8.841,8.841,0,0,1,1.935.105,7.026,7.026,0,0,1,.6-.24,22.746,22.746,0,0,0,.45-2.925h.69A3.616,3.616,0,0,0,1.928-1.14,1.908,1.908,0,0,0,3.39-.555a1.638,1.638,0,0,0,1.1-.368A1.307,1.307,0,0,0,4.92-1.98,1.525,1.525,0,0,0,4.7-2.842a1.707,1.707,0,0,0-.555-.533,9.9,9.9,0,0,0-.93-.465q-.06-.03-.143-.068L2.88-3.99A7.792,7.792,0,0,1,1.7-4.665a2.531,2.531,0,0,1-.758-.907,3.2,3.2,0,0,1-.3-1.477,2.119,2.119,0,0,1,.93-1.913A3.914,3.914,0,0,1,3.765-9.57ZM12.8-1.44A3.348,3.348,0,0,1,11.55-.18,3.319,3.319,0,0,1,9.9.24,2.494,2.494,0,0,1,7.867-.637,3.839,3.839,0,0,1,7.14-3.15a4.635,4.635,0,0,1,.885-3.113,2.906,2.906,0,0,1,2.3-1.012A1.9,1.9,0,0,1,12.18-6.24,5.414,5.414,0,0,1,12.7-3.765H8.835v.345a3.826,3.826,0,0,0,.39,1.92,1.248,1.248,0,0,0,1.14.66,2.786,2.786,0,0,0,1.98-.9Zm-2.7-5.205q-1.05,0-1.23,2.205H10.98a6.221,6.221,0,0,0-.24-1.613Q10.545-6.645,10.095-6.645Zm5.985-3.09v7.89a3.575,3.575,0,0,0,.06.78.563.563,0,0,0,.292.368,1.816,1.816,0,0,0,.773.142v.6L16.86.03q-.915-.06-1.59-.06-.2,0-1.635.06l-.3.015v-.6A1.816,1.816,0,0,0,14.108-.7a.563.563,0,0,0,.292-.368,3.574,3.574,0,0,0,.06-.78V-7.65a2.99,2.99,0,0,0-.06-.7.537.537,0,0,0-.292-.345,1.923,1.923,0,0,0-.773-.135v-.57l2.4-.465Zm7.545,8.3A3.348,3.348,0,0,1,22.38-.18a3.319,3.319,0,0,1-1.65.42A2.494,2.494,0,0,1,18.7-.637,3.839,3.839,0,0,1,17.97-3.15a4.635,4.635,0,0,1,.885-3.113A2.906,2.906,0,0,1,21.15-7.275,1.9,1.9,0,0,1,23.01-6.24a5.414,5.414,0,0,1,.525,2.475h-3.87v.345a3.826,3.826,0,0,0,.39,1.92,1.248,1.248,0,0,0,1.14.66,2.786,2.786,0,0,0,1.98-.9Zm-2.7-5.205q-1.05,0-1.23,2.205H21.81a6.221,6.221,0,0,0-.24-1.613Q21.375-6.645,20.925-6.645Zm6.945-.6a6.711,6.711,0,0,1,1.695.24V-4.86h-.72a2.241,2.241,0,0,0-.33-1.29,1.011,1.011,0,0,0-.87-.48,1.222,1.222,0,0,0-1.185.8,6.008,6.008,0,0,0-.36,2.362q0,2.61,1.485,2.61a2.031,2.031,0,0,0,1.71-.9l.48.285A2.654,2.654,0,0,1,28.6-.2,3.173,3.173,0,0,1,27.165.18a2.528,2.528,0,0,1-2.07-.855,3.829,3.829,0,0,1-.7-2.49A4.532,4.532,0,0,1,25.3-6.158,3.164,3.164,0,0,1,27.87-7.245Zm7.2,6.8a3.487,3.487,0,0,1-2.1.675A1.239,1.239,0,0,1,31.777-.36a3.383,3.383,0,0,1-.323-1.62V-6.33h-1.14v-.555l1.14-.45.66-1.725h.96v2.01h1.8v.72h-1.8v3.99a3.528,3.528,0,0,0,.15,1.17.594.594,0,0,0,.615.405,2.15,2.15,0,0,0,.975-.225Z" transform="translate(136 30)" fill="#fff" opacity="0.85"/><path d="M3.765-9.57a6.61,6.61,0,0,1,1.313.135A4.358,4.358,0,0,1,6.21-9.06a14.122,14.122,0,0,0-.15,2.325H5.43a2.234,2.234,0,0,0-.48-1.477A1.543,1.543,0,0,0,3.705-8.79a1.857,1.857,0,0,0-1.163.33,1.139,1.139,0,0,0-.428.96,1.535,1.535,0,0,0,.218.847,1.637,1.637,0,0,0,.547.532q.33.2.915.465l.345.15a7.064,7.064,0,0,1,1.178.66,2.531,2.531,0,0,1,.757.908,3.2,3.2,0,0,1,.3,1.478,2.531,2.531,0,0,1-.4,1.425A2.6,2.6,0,0,1,4.875-.1,3.533,3.533,0,0,1,3.36.225,8.841,8.841,0,0,1,1.935.105,7.026,7.026,0,0,1,.6-.24,22.746,22.746,0,0,0,.45-2.925h.69A3.616,3.616,0,0,0,1.928-1.14,1.908,1.908,0,0,0,3.39-.555a1.638,1.638,0,0,0,1.1-.368A1.307,1.307,0,0,0,4.92-1.98,1.525,1.525,0,0,0,4.7-2.842a1.707,1.707,0,0,0-.555-.533,9.9,9.9,0,0,0-.93-.465q-.06-.03-.143-.068L2.88-3.99A7.792,7.792,0,0,1,1.7-4.665a2.531,2.531,0,0,1-.758-.907,3.2,3.2,0,0,1-.3-1.477,2.119,2.119,0,0,1,.93-1.913A3.914,3.914,0,0,1,3.765-9.57Zm7.9,9.12a3.487,3.487,0,0,1-2.1.675A1.239,1.239,0,0,1,8.377-.36a3.383,3.383,0,0,1-.323-1.62V-6.33H6.915v-.555l1.14-.45.66-1.725h.96v2.01h1.8v.72h-1.8v3.99a3.528,3.528,0,0,0,.15,1.17.594.594,0,0,0,.615.405,2.15,2.15,0,0,0,.975-.225Zm5.985-1.4a3.589,3.589,0,0,0,.06.773.562.562,0,0,0,.3.375,1.874,1.874,0,0,0,.78.142v.6q-.75-.075-1.35-.075a12.041,12.041,0,0,0-1.26.075V-1.26a2.375,2.375,0,0,1-.847,1.1,1.994,1.994,0,0,1-1.148.39,1.651,1.651,0,0,1-1.875-1.86q0-2.3,3.735-2.3V-5.22A1.824,1.824,0,0,0,15.8-6.308a.986.986,0,0,0-.84-.338.862.862,0,0,0-.818.525,3.566,3.566,0,0,0-.262,1.545h-.87v-2.19a5.773,5.773,0,0,1,2.25-.51,2.809,2.809,0,0,1,1.762.495,2.021,2.021,0,0,1,.637,1.7ZM14.715-.9a1.156,1.156,0,0,0,.8-.322,1.888,1.888,0,0,0,.517-.893V-3.27a2.672,2.672,0,0,0-1.635.375,1.273,1.273,0,0,0-.465,1.05,1.1,1.1,0,0,0,.2.7A.7.7,0,0,0,14.715-.9Zm9.15-6.375a1.558,1.558,0,0,1,.7.15,14.654,14.654,0,0,1-.165,1.74H23.88a.316.316,0,0,0-.173-.255.793.793,0,0,0-.4-.09,1.218,1.218,0,0,0-.75.293,2.27,2.27,0,0,0-.645.952v2.64a3.189,3.189,0,0,0,.068.78.579.579,0,0,0,.352.368,2.606,2.606,0,0,0,.93.142v.6Q21.69-.03,21.195-.03q-.24,0-1.71.06L19.17.045v-.6A1.816,1.816,0,0,0,19.942-.7a.563.563,0,0,0,.293-.368,3.575,3.575,0,0,0,.06-.78V-5.07a2.89,2.89,0,0,0-.06-.7.537.537,0,0,0-.293-.337,1.922,1.922,0,0,0-.772-.135v-.57l2.34-.465.33.15v1.59Q22.59-7.275,23.865-7.275ZM29.7-.45a3.487,3.487,0,0,1-2.1.675A1.239,1.239,0,0,1,26.407-.36a3.383,3.383,0,0,1-.323-1.62V-6.33h-1.14v-.555l1.14-.45.66-1.725h.96v2.01h1.8v.72H27.7v3.99a3.528,3.528,0,0,0,.15,1.17.594.594,0,0,0,.615.405,2.15,2.15,0,0,0,.975-.225Z" transform="translate(266 30)" fill="#fff" opacity="0.85"/><circle cx="7.5" cy="7.5" r="7.5" transform="translate(299 18)" fill="#fff" opacity="0.85"/><path d="M31,4A27.008,27.008,0,0,0,20.492,55.88,27.008,27.008,0,0,0,41.508,6.12,26.827,26.827,0,0,0,31,4m0-4A31,31,0,1,1,0,31,31,31,0,0,1,31,0Z" transform="translate(240 105)" fill="#fff" opacity="0.85"/><path d="M31,4A27.008,27.008,0,0,0,20.492,55.88,27.008,27.008,0,0,0,41.508,6.12,26.827,26.827,0,0,0,31,4m0-4A31,31,0,1,1,0,31,31,31,0,0,1,31,0Z" transform="translate(344 105)" fill="#fff" opacity="0.85"/><path d="M31,4A27.008,27.008,0,0,0,20.492,55.88,27.008,27.008,0,0,0,41.508,6.12,26.827,26.827,0,0,0,31,4m0-4A31,31,0,1,1,0,31,31,31,0,0,1,31,0Z" transform="translate(291 157)" fill="#fff" opacity="0.85"/></g></svg>